<svg width="386" height="80" viewBox="0 0 386 80" fill="none" xmlns="http://www.w3.org/2000/svg">
<path d="M54.216 64H42.624L41.76 44.488C41.52 39.832 41.4 35.68 41.4 32.032C41.4 29.248 41.472 26.608 41.616 24.112L33.912 58.744H22.752L14.544 24.112C14.832 28.288 14.976 32.224 14.976 35.92C14.976 38.704 14.904 41.608 14.76 44.632L13.896 64H2.376L6.12 14.104H21.024L28.512 47.944L35.496 14.104H50.472L54.216 64ZM72.4416 25.768V64H61.0656V25.768H72.4416ZM66.6816 5.608C68.6496 5.608 70.2576 6.232 71.5056 7.48C72.8016 8.68 73.4496 10.216 73.4496 12.088C73.4496 13.96 72.8016 15.52 71.5056 16.768C70.2576 17.968 68.6496 18.568 66.6816 18.568C64.7136 18.568 63.1056 17.968 61.8576 16.768C60.6096 15.52 59.9856 13.96 59.9856 12.088C59.9856 10.216 60.6096 8.68 61.8576 7.48C63.1056 6.232 64.7136 5.608 66.6816 5.608ZM97.9459 24.544C100.586 24.544 102.962 24.928 105.074 25.696C107.186 26.464 109.178 27.64 111.05 29.224L106.154 35.992C103.754 34.168 101.33 33.256 98.8819 33.256C96.3379 33.256 94.4179 34.192 93.1219 36.064C91.8259 37.936 91.1779 40.96 91.1779 45.136C91.1779 49.168 91.8259 52.024 93.1219 53.704C94.4179 55.384 96.2899 56.224 98.7379 56.224C100.034 56.224 101.21 56.032 102.266 55.648C103.322 55.216 104.594 54.544 106.082 53.632L111.05 60.688C107.258 63.712 102.962 65.224 98.1619 65.224C94.2739 65.224 90.9139 64.408 88.0819 62.776C85.2499 61.096 83.0659 58.768 81.5299 55.792C79.9939 52.768 79.2259 49.24 79.2259 45.208C79.2259 41.176 79.9939 37.6 81.5299 34.48C83.0659 31.36 85.2499 28.936 88.0819 27.208C90.9139 25.432 94.2019 24.544 97.9459 24.544ZM145.52 52.912C145.52 54.352 145.712 55.408 146.096 56.08C146.528 56.752 147.2 57.256 148.112 57.592L145.736 65.008C143.384 64.816 141.464 64.312 139.976 63.496C138.488 62.632 137.336 61.288 136.52 59.464C134.024 63.304 130.184 65.224 125 65.224C121.208 65.224 118.184 64.12 115.928 61.912C113.672 59.704 112.544 56.824 112.544 53.272C112.544 49.096 114.08 45.904 117.152 43.696C120.224 41.488 124.664 40.384 130.472 40.384H134.36V38.728C134.36 36.472 133.88 34.936 132.92 34.12C131.96 33.256 130.28 32.824 127.88 32.824C126.632 32.824 125.12 33.016 123.344 33.4C121.568 33.736 119.744 34.216 117.872 34.84L115.28 27.352C117.68 26.44 120.128 25.744 122.624 25.264C125.168 24.784 127.52 24.544 129.68 24.544C135.152 24.544 139.16 25.672 141.704 27.928C144.248 30.184 145.52 33.568 145.52 38.08V52.912ZM128.312 57.088C130.904 57.088 132.92 55.864 134.36 53.416V46.648H131.552C128.96 46.648 127.016 47.104 125.72 48.016C124.472 48.928 123.848 50.344 123.848 52.264C123.848 53.8 124.232 55 125 55.864C125.816 56.68 126.92 57.088 128.312 57.088ZM187.917 44.128C187.917 45.712 187.845 47.08 187.701 48.232H164.013C164.397 51.448 165.309 53.704 166.749 55C168.189 56.296 170.181 56.944 172.725 56.944C174.261 56.944 175.749 56.68 177.189 56.152C178.629 55.576 180.189 54.712 181.869 53.56L186.549 59.896C182.085 63.448 177.117 65.224 171.645 65.224C165.453 65.224 160.701 63.4 157.389 59.752C154.077 56.104 152.421 51.208 152.421 45.064C152.421 41.176 153.117 37.696 154.509 34.624C155.901 31.504 157.941 29.056 160.629 27.28C163.317 25.456 166.533 24.544 170.277 24.544C175.797 24.544 180.117 26.272 183.237 29.728C186.357 33.184 187.917 37.984 187.917 44.128ZM176.757 40.888C176.661 35.032 174.597 32.104 170.565 32.104C168.597 32.104 167.061 32.824 165.957 34.264C164.901 35.704 164.253 38.08 164.013 41.392H176.757V40.888ZM204.46 65.224C201.148 65.224 198.556 64.288 196.684 62.416C194.86 60.496 193.948 57.784 193.948 54.28V10.576L205.324 9.352V53.848C205.324 55.432 205.972 56.224 207.268 56.224C207.94 56.224 208.564 56.104 209.14 55.864L211.372 63.928C209.308 64.792 207.004 65.224 204.46 65.224ZM244.793 14.104V54.64H264.233L263.009 64H232.985V14.104H244.793ZM281.059 25.768V64H269.683V25.768H281.059ZM275.299 5.608C277.267 5.608 278.875 6.232 280.123 7.48C281.419 8.68 282.067 10.216 282.067 12.088C282.067 13.96 281.419 15.52 280.123 16.768C278.875 17.968 277.267 18.568 275.299 18.568C273.331 18.568 271.723 17.968 270.475 16.768C269.227 15.52 268.603 13.96 268.603 12.088C268.603 10.216 269.227 8.68 270.475 7.48C271.723 6.232 273.331 5.608 275.299 5.608ZM332.267 24.544C335.291 24.544 337.715 25.576 339.539 27.64C341.363 29.656 342.275 32.464 342.275 36.064V64H330.899V38.008C330.899 34.6 329.819 32.896 327.659 32.896C326.459 32.896 325.403 33.304 324.491 34.12C323.579 34.936 322.691 36.184 321.827 37.864V64H310.451V38.008C310.451 34.6 309.371 32.896 307.211 32.896C306.059 32.896 305.003 33.328 304.043 34.192C303.131 35.008 302.243 36.232 301.379 37.864V64H290.003V25.768H299.939L300.731 30.232C302.219 28.312 303.851 26.896 305.627 25.984C307.451 25.024 309.515 24.544 311.819 24.544C313.979 24.544 315.827 25.072 317.363 26.128C318.947 27.184 320.099 28.672 320.819 30.592C322.355 28.528 324.035 27.016 325.859 26.056C327.731 25.048 329.867 24.544 332.267 24.544ZM381.207 52.912C381.207 54.352 381.399 55.408 381.783 56.08C382.215 56.752 382.887 57.256 383.799 57.592L381.423 65.008C379.071 64.816 377.151 64.312 375.663 63.496C374.175 62.632 373.023 61.288 372.207 59.464C369.711 63.304 365.871 65.224 360.687 65.224C356.895 65.224 353.871 64.12 351.615 61.912C349.359 59.704 348.231 56.824 348.231 53.272C348.231 49.096 349.767 45.904 352.839 43.696C355.911 41.488 360.351 40.384 366.159 40.384H370.047V38.728C370.047 36.472 369.567 34.936 368.607 34.12C367.647 33.256 365.967 32.824 363.567 32.824C362.319 32.824 360.807 33.016 359.031 33.4C357.255 33.736 355.431 34.216 353.559 34.84L350.967 27.352C353.367 26.44 355.815 25.744 358.311 25.264C360.855 24.784 363.207 24.544 365.367 24.544C370.839 24.544 374.847 25.672 377.391 27.928C379.935 30.184 381.207 33.568 381.207 38.08V52.912ZM363.999 57.088C366.591 57.088 368.607 55.864 370.047 53.416V46.648H367.239C364.647 46.648 362.703 47.104 361.407 48.016C360.159 48.928 359.535 50.344 359.535 52.264C359.535 53.8 359.919 55 360.687 55.864C361.503 56.68 362.607 57.088 363.999 57.088Z" fill="#141414"/>
</svg>
